# xmcd
#
# Track frame offsets:
#	150
#	27410
#	43640
#	52311
#	61376
#	68343
#	77727
#	87221
#	111961
#	125028
#	141916
#	146626
#	159000
#	167853
#	186659
#	192895
#	205236
#
# Disc length: 2865 seconds
#
# Revision: 0
# Processed by: cddbd v1.5PL3 Copyright (c) Steve Scherf et al.
# Submitted via: dBpowerAMP V4.0
#
DISCID=fb0b2f11
DTITLE=Willie Nelson - Willie and Family Live - Part 2
DYEAR=1900
DGENRE=Country
TTITLE0=Till I Gain Control Again
TTITLE1=Bloody Mary Morning
TTITLE2=I'm A Memory
TTITLE3=Mr. Record Man
TTITLE4=Hello Walls
TTITLE5=One Day At A Time
TTITLE6=Will The Circle Be Unbroken
TTITLE7=Amazing Grace
TTITLE8=Take This Job And Shove It
TTITLE9=Uncloudy Day
TTITLE10=The Only Daddy That'll Walk The Line-1
TTITLE11=A Song For You
TTITLE12=Roll In My Sweet Baby's Arms
TTITLE13=Georgia On My Mind
TTITLE14=I Gotta Get Drunk
TTITLE15=Whiskey River-2
TTITLE16=The Only Daddy That'll Walk The Line-2
EXTD=
EXTT0=
EXTT1=
EXTT2=
EXTT3=
EXTT4=
EXTT5=
EXTT6=
EXTT7=
EXTT8=
EXTT9=
EXTT10=
EXTT11=
EXTT12=
EXTT13=
EXTT14=
EXTT15=
EXTT16=
PLAYORDER=
